<svg aria-roledescription="er" role="graphics-document document" viewBox="0 0 377.620849609375 579" style="max-width: 377.621px; background-color: white;" xmlns:xlink="http://www.w3.org/1999/xlink" xmlns="http://www.w3.org/2000/svg" width="100%" id="my-svg"><style>#my-svg{font-family:"trebuchet ms",verdana,arial,sans-serif;font-size:16px;fill:#000000;}#my-svg .error-icon{fill:#552222;}#my-svg .error-text{fill:#552222;stroke:#552222;}#my-svg .edge-thickness-normal{stroke-width:1px;}#my-svg .edge-thickness-thick{stroke-width:3.5px;}#my-svg .edge-pattern-solid{stroke-dasharray:0;}#my-svg .edge-thickness-invisible{stroke-width:0;fill:none;}#my-svg .edge-pattern-dashed{stroke-dasharray:3;}#my-svg .edge-pattern-dotted{stroke-dasharray:2;}#my-svg .marker{fill:#000000;stroke:#000000;}#my-svg .marker.cross{stroke:#000000;}#my-svg svg{font-family:"trebuchet ms",verdana,arial,sans-serif;font-size:16px;}#my-svg p{margin:0;}#my-svg .entityBox{fill:#cde498;stroke:#13540c;}#my-svg .attributeBoxOdd{fill:#ffffff;stroke:#13540c;}#my-svg .attributeBoxEven{fill:#f2f2f2;stroke:#13540c;}#my-svg .relationshipLabelBox{fill:hsl(78.1578947368, 58.4615384615%, 84.5098039216%);opacity:0.7;background-color:hsl(78.1578947368, 58.4615384615%, 84.5098039216%);}#my-svg .relationshipLabelBox rect{opacity:0.5;}#my-svg .relationshipLine{stroke:#000000;}#my-svg .entityTitleText{text-anchor:middle;font-size:18px;fill:#000000;}#my-svg #MD_PARENT_START{fill:#f5f5f5!important;stroke:#000000!important;stroke-width:1;}#my-svg #MD_PARENT_END{fill:#f5f5f5!important;stroke:#000000!important;stroke-width:1;}#my-svg :root{--mermaid-font-family:"trebuchet ms",verdana,arial,sans-serif;}</style><g/><defs><marker orient="auto" markerHeight="240" markerWidth="190" refY="7" refX="0" id="MD_PARENT_START"><path d="M 18,7 L9,13 L1,7 L9,1 Z"/></marker></defs><defs><marker orient="auto" markerHeight="28" markerWidth="20" refY="7" refX="19" id="MD_PARENT_END"><path d="M 18,7 L9,13 L1,7 L9,1 Z"/></marker></defs><defs><marker orient="auto" markerHeight="18" markerWidth="18" refY="9" refX="0" id="ONLY_ONE_START"><path d="M9,0 L9,18 M15,0 L15,18" fill="none" stroke="gray"/></marker></defs><defs><marker orient="auto" markerHeight="18" markerWidth="18" refY="9" refX="18" id="ONLY_ONE_END"><path d="M3,0 L3,18 M9,0 L9,18" fill="none" stroke="gray"/></marker></defs><defs><marker orient="auto" markerHeight="18" markerWidth="30" refY="9" refX="0" id="ZERO_OR_ONE_START"><circle r="6" cy="9" cx="21" fill="white" stroke="gray"/><path d="M9,0 L9,18" fill="none" stroke="gray"/></marker></defs><defs><marker orient="auto" markerHeight="18" markerWidth="30" refY="9" refX="30" id="ZERO_OR_ONE_END"><circle r="6" cy="9" cx="9" fill="white" stroke="gray"/><path d="M21,0 L21,18" fill="none" stroke="gray"/></marker></defs><defs><marker orient="auto" markerHeight="36" markerWidth="45" refY="18" refX="18" id="ONE_OR_MORE_START"><path d="M0,18 Q 18,0 36,18 Q 18,36 0,18 M42,9 L42,27" fill="none" stroke="gray"/></marker></defs><defs><marker orient="auto" markerHeight="36" markerWidth="45" refY="18" refX="27" id="ONE_OR_MORE_END"><path d="M3,9 L3,27 M9,18 Q27,0 45,18 Q27,36 9,18" fill="none" stroke="gray"/></marker></defs><defs><marker orient="auto" markerHeight="36" markerWidth="57" refY="18" refX="18" id="ZERO_OR_MORE_START"><circle r="6" cy="18" cx="48" fill="white" stroke="gray"/><path d="M0,18 Q18,0 36,18 Q18,36 0,18" fill="none" stroke="gray"/></marker></defs><defs><marker orient="auto" markerHeight="36" markerWidth="57" refY="18" refX="39" id="ZERO_OR_MORE_END"><circle r="6" cy="18" cx="9" fill="white" stroke="gray"/><path d="M21,18 Q39,0 57,18 Q39,36 21,18" fill="none" stroke="gray"/></marker></defs><path style="stroke: gray; fill: none;" marker-start="url(#ZERO_OR_MORE_START)" marker-end="url(#ZERO_OR_MORE_END)" d="M49.803,244L47.231,252.333C44.659,260.667,39.515,277.333,42.651,294C45.787,310.667,57.202,327.333,62.91,335.667L68.618,344" class="er relationshipLine"/><path style="stroke: gray; fill: none;" marker-start="url(#ZERO_OR_MORE_START)" marker-end="url(#ZERO_OR_MORE_END)" d="M104.785,490L109.716,481.667C114.647,473.333,124.509,456.667,123.732,440C122.956,423.333,111.54,406.667,105.832,398.333L100.125,390" class="er relationshipLine"/><path style="stroke: gray; fill: none;" marker-start="url(#ZERO_OR_ONE_START)" marker-end="url(#ONLY_ONE_END)" d="M100.125,344L105.832,335.667C111.54,327.333,122.956,310.667,126.091,294C129.227,277.333,124.083,260.667,121.511,252.333L118.939,244" class="er relationshipLine"/><path style="stroke: gray; fill: none;" marker-start="url(#ZERO_OR_ONE_START)" marker-end="url(#ONLY_ONE_END)" d="M68.618,390L62.91,398.333C57.202,406.667,45.787,423.333,45.01,440C44.233,456.667,54.095,473.333,59.026,481.667L63.957,490" class="er relationshipLine"/><g transform="translate(27.06976318359375,20 )" id="entity-Player-8a4d8822-5447-5bf3-9bb1-c82c7616821b"><rect height="224" width="114.60264587402344" y="0" x="0" class="er entityBox"/><text style="dominant-baseline: middle; text-anchor: middle; font-size: 12px;" transform="translate(57.30132293701172,12)" y="0" x="0" id="text-entity-Player-8a4d8822-5447-5bf3-9bb1-c82c7616821b" class="er entityLabel">Player</text><rect height="23" width="37.39605712890625" y="24" x="0" class="er attributeBoxOdd"/><text style="dominant-baseline: middle; font-size: 10.2px;" transform="translate(5,35.5)" y="0" x="0" id="text-entity-Player-8a4d8822-5447-5bf3-9bb1-c82c7616821b-attr-1-type" class="er entityLabel">String</text><rect height="23" width="54.62846374511719" y="24" x="37.39605712890625" class="er attributeBoxOdd"/><text style="dominant-baseline: middle; font-size: 10.2px;" transform="translate(42.39605712890625,35.5)" y="0" x="0" id="text-entity-Player-8a4d8822-5447-5bf3-9bb1-c82c7616821b-attr-1-name" class="er entityLabel">user_id</text><rect height="23" width="22.578125" y="24" x="92.02452087402344" class="er attributeBoxOdd"/><text style="dominant-baseline: middle; font-size: 10.2px;" transform="translate(97.02452087402344,35.5)" y="0" x="0" id="text-entity-Player-8a4d8822-5447-5bf3-9bb1-c82c7616821b-attr-1-comment" class="er entityLabel">🗝️</text><rect height="22" width="37.39605712890625" y="47" x="0" class="er attributeBoxEven"/><text style="dominant-baseline: middle; font-size: 10.2px;" transform="translate(5,58)" y="0" x="0" id="text-entity-Player-8a4d8822-5447-5bf3-9bb1-c82c7616821b-attr-2-type" class="er entityLabel">String</text><rect height="22" width="54.62846374511719" y="47" x="37.39605712890625" class="er attributeBoxEven"/><text style="dominant-baseline: middle; font-size: 10.2px;" transform="translate(42.39605712890625,58)" y="0" x="0" id="text-entity-Player-8a4d8822-5447-5bf3-9bb1-c82c7616821b-attr-2-name" class="er entityLabel">username</text><rect height="22" width="22.578125" y="47" x="92.02452087402344" class="er attributeBoxEven"/><text style="dominant-baseline: middle; font-size: 10.2px;" transform="translate(97.02452087402344,58)" y="0" x="0" id="text-entity-Player-8a4d8822-5447-5bf3-9bb1-c82c7616821b-attr-2-comment" class="er entityLabel"/><rect height="22" width="37.39605712890625" y="69" x="0" class="er attributeBoxOdd"/><text style="dominant-baseline: middle; font-size: 10.2px;" transform="translate(5,80)" y="0" x="0" id="text-entity-Player-8a4d8822-5447-5bf3-9bb1-c82c7616821b-attr-3-type" class="er entityLabel">String</text><rect height="22" width="54.62846374511719" y="69" x="37.39605712890625" class="er attributeBoxOdd"/><text style="dominant-baseline: middle; font-size: 10.2px;" transform="translate(42.39605712890625,80)" y="0" x="0" id="text-entity-Player-8a4d8822-5447-5bf3-9bb1-c82c7616821b-attr-3-name" class="er entityLabel">email</text><rect height="22" width="22.578125" y="69" x="92.02452087402344" class="er attributeBoxOdd"/><text style="dominant-baseline: middle; font-size: 10.2px;" transform="translate(97.02452087402344,80)" y="0" x="0" id="text-entity-Player-8a4d8822-5447-5bf3-9bb1-c82c7616821b-attr-3-comment" class="er entityLabel"/><rect height="22" width="37.39605712890625" y="91" x="0" class="er attributeBoxEven"/><text style="dominant-baseline: middle; font-size: 10.2px;" transform="translate(5,102)" y="0" x="0" id="text-entity-Player-8a4d8822-5447-5bf3-9bb1-c82c7616821b-attr-4-type" class="er entityLabel">Int</text><rect height="22" width="54.62846374511719" y="91" x="37.39605712890625" class="er attributeBoxEven"/><text style="dominant-baseline: middle; font-size: 10.2px;" transform="translate(42.39605712890625,102)" y="0" x="0" id="text-entity-Player-8a4d8822-5447-5bf3-9bb1-c82c7616821b-attr-4-name" class="er entityLabel">wins</text><rect height="22" width="22.578125" y="91" x="92.02452087402344" class="er attributeBoxEven"/><text style="dominant-baseline: middle; font-size: 10.2px;" transform="translate(97.02452087402344,102)" y="0" x="0" id="text-entity-Player-8a4d8822-5447-5bf3-9bb1-c82c7616821b-attr-4-comment" class="er entityLabel"/><rect height="22" width="37.39605712890625" y="113" x="0" class="er attributeBoxOdd"/><text style="dominant-baseline: middle; font-size: 10.2px;" transform="translate(5,124)" y="0" x="0" id="text-entity-Player-8a4d8822-5447-5bf3-9bb1-c82c7616821b-attr-5-type" class="er entityLabel">Int</text><rect height="22" width="54.62846374511719" y="113" x="37.39605712890625" class="er attributeBoxOdd"/><text style="dominant-baseline: middle; font-size: 10.2px;" transform="translate(42.39605712890625,124)" y="0" x="0" id="text-entity-Player-8a4d8822-5447-5bf3-9bb1-c82c7616821b-attr-5-name" class="er entityLabel">goals</text><rect height="22" width="22.578125" y="113" x="92.02452087402344" class="er attributeBoxOdd"/><text style="dominant-baseline: middle; font-size: 10.2px;" transform="translate(97.02452087402344,124)" y="0" x="0" id="text-entity-Player-8a4d8822-5447-5bf3-9bb1-c82c7616821b-attr-5-comment" class="er entityLabel"/><rect height="22" width="37.39605712890625" y="135" x="0" class="er attributeBoxEven"/><text style="dominant-baseline: middle; font-size: 10.2px;" transform="translate(5,146)" y="0" x="0" id="text-entity-Player-8a4d8822-5447-5bf3-9bb1-c82c7616821b-attr-6-type" class="er entityLabel">Int</text><rect height="22" width="54.62846374511719" y="135" x="37.39605712890625" class="er attributeBoxEven"/><text style="dominant-baseline: middle; font-size: 10.2px;" transform="translate(42.39605712890625,146)" y="0" x="0" id="text-entity-Player-8a4d8822-5447-5bf3-9bb1-c82c7616821b-attr-6-name" class="er entityLabel">games</text><rect height="22" width="22.578125" y="135" x="92.02452087402344" class="er attributeBoxEven"/><text style="dominant-baseline: middle; font-size: 10.2px;" transform="translate(97.02452087402344,146)" y="0" x="0" id="text-entity-Player-8a4d8822-5447-5bf3-9bb1-c82c7616821b-attr-6-comment" class="er entityLabel"/><rect height="22" width="37.39605712890625" y="157" x="0" class="er attributeBoxOdd"/><text style="dominant-baseline: middle; font-size: 10.2px;" transform="translate(5,168)" y="0" x="0" id="text-entity-Player-8a4d8822-5447-5bf3-9bb1-c82c7616821b-attr-7-type" class="er entityLabel">Int</text><rect height="22" width="54.62846374511719" y="157" x="37.39605712890625" class="er attributeBoxOdd"/><text style="dominant-baseline: middle; font-size: 10.2px;" transform="translate(42.39605712890625,168)" y="0" x="0" id="text-entity-Player-8a4d8822-5447-5bf3-9bb1-c82c7616821b-attr-7-name" class="er entityLabel">losses</text><rect height="22" width="22.578125" y="157" x="92.02452087402344" class="er attributeBoxOdd"/><text style="dominant-baseline: middle; font-size: 10.2px;" transform="translate(97.02452087402344,168)" y="0" x="0" id="text-entity-Player-8a4d8822-5447-5bf3-9bb1-c82c7616821b-attr-7-comment" class="er entityLabel"/><rect height="23" width="37.39605712890625" y="179" x="0" class="er attributeBoxEven"/><text style="dominant-baseline: middle; font-size: 10.2px;" transform="translate(5,190.5)" y="0" x="0" id="text-entity-Player-8a4d8822-5447-5bf3-9bb1-c82c7616821b-attr-8-type" class="er entityLabel">Float</text><rect height="23" width="54.62846374511719" y="179" x="37.39605712890625" class="er attributeBoxEven"/><text style="dominant-baseline: middle; font-size: 10.2px;" transform="translate(42.39605712890625,190.5)" y="0" x="0" id="text-entity-Player-8a4d8822-5447-5bf3-9bb1-c82c7616821b-attr-8-name" class="er entityLabel">ratio</text><rect height="23" width="22.578125" y="179" x="92.02452087402344" class="er attributeBoxEven"/><text style="dominant-baseline: middle; font-size: 10.2px;" transform="translate(97.02452087402344,190.5)" y="0" x="0" id="text-entity-Player-8a4d8822-5447-5bf3-9bb1-c82c7616821b-attr-8-comment" class="er entityLabel">❓</text><rect height="22" width="37.39605712890625" y="202" x="0" class="er attributeBoxOdd"/><text style="dominant-baseline: middle; font-size: 10.2px;" transform="translate(5,213)" y="0" x="0" id="text-entity-Player-8a4d8822-5447-5bf3-9bb1-c82c7616821b-attr-9-type" class="er entityLabel">String</text><rect height="22" width="54.62846374511719" y="202" x="37.39605712890625" class="er attributeBoxOdd"/><text style="dominant-baseline: middle; font-size: 10.2px;" transform="translate(42.39605712890625,213)" y="0" x="0" id="text-entity-Player-8a4d8822-5447-5bf3-9bb1-c82c7616821b-attr-9-name" class="er entityLabel">role</text><rect height="22" width="22.578125" y="202" x="92.02452087402344" class="er attributeBoxOdd"/><text style="dominant-baseline: middle; font-size: 10.2px;" transform="translate(97.02452087402344,213)" y="0" x="0" id="text-entity-Player-8a4d8822-5447-5bf3-9bb1-c82c7616821b-attr-9-comment" class="er entityLabel"/></g><g transform="translate(20,490 )" id="entity-Match-bb868d25-f1db-5893-b0b3-486d1ccf5a14"><rect height="69" width="128.74217224121094" y="0" x="0" class="er entityBox"/><text style="dominant-baseline: middle; text-anchor: middle; font-size: 12px;" transform="translate(64.37108612060547,12)" y="0" x="0" id="text-entity-Match-bb868d25-f1db-5893-b0b3-486d1ccf5a14" class="er entityLabel">Match</text><rect height="23" width="54.095550537109375" y="24" x="0" class="er attributeBoxOdd"/><text style="dominant-baseline: middle; font-size: 10.2px;" transform="translate(5,35.5)" y="0" x="0" id="text-entity-Match-bb868d25-f1db-5893-b0b3-486d1ccf5a14-attr-1-type" class="er entityLabel">Int</text><rect height="23" width="52.06849670410156" y="24" x="54.095550537109375" class="er attributeBoxOdd"/><text style="dominant-baseline: middle; font-size: 10.2px;" transform="translate(59.095550537109375,35.5)" y="0" x="0" id="text-entity-Match-bb868d25-f1db-5893-b0b3-486d1ccf5a14-attr-1-name" class="er entityLabel">id</text><rect height="23" width="22.578125" y="24" x="106.16404724121094" class="er attributeBoxOdd"/><text style="dominant-baseline: middle; font-size: 10.2px;" transform="translate(111.16404724121094,35.5)" y="0" x="0" id="text-entity-Match-bb868d25-f1db-5893-b0b3-486d1ccf5a14-attr-1-comment" class="er entityLabel">🗝️</text><rect height="22" width="54.095550537109375" y="47" x="0" class="er attributeBoxEven"/><text style="dominant-baseline: middle; font-size: 10.2px;" transform="translate(5,58)" y="0" x="0" id="text-entity-Match-bb868d25-f1db-5893-b0b3-486d1ccf5a14-attr-2-type" class="er entityLabel">DateTime</text><rect height="22" width="52.06849670410156" y="47" x="54.095550537109375" class="er attributeBoxEven"/><text style="dominant-baseline: middle; font-size: 10.2px;" transform="translate(59.095550537109375,58)" y="0" x="0" id="text-entity-Match-bb868d25-f1db-5893-b0b3-486d1ccf5a14-attr-2-name" class="er entityLabel">datetime</text><rect height="22" width="22.578125" y="47" x="106.16404724121094" class="er attributeBoxEven"/><text style="dominant-baseline: middle; font-size: 10.2px;" transform="translate(111.16404724121094,58)" y="0" x="0" id="text-entity-Match-bb868d25-f1db-5893-b0b3-486d1ccf5a14-attr-2-comment" class="er entityLabel"/></g><g transform="translate(23.35350799560547,344 )" id="entity-PlayersInMatches-16e5a338-cf92-5dab-81b4-a27ce09aad4e"><rect height="46" width="122.03515625" y="0" x="0" class="er entityBox"/><text style="dominant-baseline: middle; text-anchor: middle; font-size: 12px;" transform="translate(61.017578125,12)" y="0" x="0" id="text-entity-PlayersInMatches-16e5a338-cf92-5dab-81b4-a27ce09aad4e" class="er entityLabel">PlayersInMatches</text><rect height="22" width="40.72273254394531" y="24" x="0" class="er attributeBoxOdd"/><text style="dominant-baseline: middle; font-size: 10.2px;" transform="translate(5,35)" y="0" x="0" id="text-entity-PlayersInMatches-16e5a338-cf92-5dab-81b4-a27ce09aad4e-attr-1-type" class="er entityLabel">Int</text><rect height="22" width="81.31242370605469" y="24" x="40.72273254394531" class="er attributeBoxOdd"/><text style="dominant-baseline: middle; font-size: 10.2px;" transform="translate(45.72273254394531,35)" y="0" x="0" id="text-entity-PlayersInMatches-16e5a338-cf92-5dab-81b4-a27ce09aad4e-attr-1-name" class="er entityLabel">playerScore</text></g><g transform="translate(241.6724090576172,86.5 )" id="entity-MatchSettings-a0d3a564-6242-52be-9344-246fa734b625"><rect height="91" width="115.94844055175781" y="0" x="0" class="er entityBox"/><text style="dominant-baseline: middle; text-anchor: middle; font-size: 12px;" transform="translate(57.974220275878906,12)" y="0" x="0" id="text-entity-MatchSettings-a0d3a564-6242-52be-9344-246fa734b625" class="er entityLabel">MatchSettings</text><rect height="23" width="23.412002563476562" y="24" x="0" class="er attributeBoxOdd"/><text style="dominant-baseline: middle; font-size: 10.2px;" transform="translate(5,35.5)" y="0" x="0" id="text-entity-MatchSettings-a0d3a564-6242-52be-9344-246fa734b625-attr-1-type" class="er entityLabel">Int</text><rect height="23" width="69.95831298828125" y="24" x="23.412002563476562" class="er attributeBoxOdd"/><text style="dominant-baseline: middle; font-size: 10.2px;" transform="translate(28.412002563476562,35.5)" y="0" x="0" id="text-entity-MatchSettings-a0d3a564-6242-52be-9344-246fa734b625-attr-1-name" class="er entityLabel">id</text><rect height="23" width="22.578125" y="24" x="93.37031555175781" class="er attributeBoxOdd"/><text style="dominant-baseline: middle; font-size: 10.2px;" transform="translate(98.37031555175781,35.5)" y="0" x="0" id="text-entity-MatchSettings-a0d3a564-6242-52be-9344-246fa734b625-attr-1-comment" class="er entityLabel">🗝️</text><rect height="22" width="23.412002563476562" y="47" x="0" class="er attributeBoxEven"/><text style="dominant-baseline: middle; font-size: 10.2px;" transform="translate(5,58)" y="0" x="0" id="text-entity-MatchSettings-a0d3a564-6242-52be-9344-246fa734b625-attr-2-type" class="er entityLabel">Int</text><rect height="22" width="69.95831298828125" y="47" x="23.412002563476562" class="er attributeBoxEven"/><text style="dominant-baseline: middle; font-size: 10.2px;" transform="translate(28.412002563476562,58)" y="0" x="0" id="text-entity-MatchSettings-a0d3a564-6242-52be-9344-246fa734b625-attr-2-name" class="er entityLabel">numPlayers</text><rect height="22" width="22.578125" y="47" x="93.37031555175781" class="er attributeBoxEven"/><text style="dominant-baseline: middle; font-size: 10.2px;" transform="translate(98.37031555175781,58)" y="0" x="0" id="text-entity-MatchSettings-a0d3a564-6242-52be-9344-246fa734b625-attr-2-comment" class="er entityLabel"/><rect height="22" width="23.412002563476562" y="69" x="0" class="er attributeBoxOdd"/><text style="dominant-baseline: middle; font-size: 10.2px;" transform="translate(5,80)" y="0" x="0" id="text-entity-MatchSettings-a0d3a564-6242-52be-9344-246fa734b625-attr-3-type" class="er entityLabel">Int</text><rect height="22" width="69.95831298828125" y="69" x="23.412002563476562" class="er attributeBoxOdd"/><text style="dominant-baseline: middle; font-size: 10.2px;" transform="translate(28.412002563476562,80)" y="0" x="0" id="text-entity-MatchSettings-a0d3a564-6242-52be-9344-246fa734b625-attr-3-name" class="er entityLabel">matchLength</text><rect height="22" width="22.578125" y="69" x="93.37031555175781" class="er attributeBoxOdd"/><text style="dominant-baseline: middle; font-size: 10.2px;" transform="translate(98.37031555175781,80)" y="0" x="0" id="text-entity-MatchSettings-a0d3a564-6242-52be-9344-246fa734b625-attr-3-comment" class="er entityLabel"/></g><rect height="14" width="45.06640625" y="289.7799377441406" x="20.715721130371094" class="er relationshipLabelBox"/><text style="text-anchor: middle; dominant-baseline: middle; font-size: 12px;" y="296.7799377441406" x="43.248924255371094" id="rel1" class="er relationshipLabel">matches</text><rect height="14" width="38.65625" y="432.12451171875" x="104.3532943725586" class="er relationshipLabelBox"/><text style="text-anchor: middle; dominant-baseline: middle; font-size: 12px;" y="439.12451171875" x="123.6814193725586" id="rel2" class="er relationshipLabel">players</text><rect height="14" width="34.9921875" y="289.7797546386719" x="107.99717712402344" class="er relationshipLabelBox"/><text style="text-anchor: middle; dominant-baseline: middle; font-size: 12px;" y="296.7797546386719" x="125.49327087402344" id="rel3" class="er relationshipLabel">player</text><rect height="14" width="33.96484375" y="432.12432861328125" x="28.07822036743164" class="er relationshipLabelBox"/><text style="text-anchor: middle; dominant-baseline: middle; font-size: 12px;" y="439.12432861328125" x="45.06064224243164" id="rel4" class="er relationshipLabel">match</text></svg>